<?xml version="1.0" encoding="UTF-8"?>
<svg version="1.1" viewBox="0 0 840 1208" width="1280" height="1280" xmlns="http://www.w3.org/2000/svg">
<path transform="translate(107,200)" d="m0 0h31l2 1v2l4 2v2h2v2h2v2h2l6 8 3 5 1 4 1 275 2-1 2-5 6-4 4-5 4-4 7-9 9-5 3-3h2l1-7 7-2 4-7 6-8 4-3 5-2 4-4 4-8 1-96 9-17 9-10 4-3 9-2 3-2h15l17 8 9 17 1 4v23l7-2 9-5 9-6 13-7 9-2 2-2 11-1 5-3 23-1 1-3h10l2 3 30 1 1 3 10 1 6 3 9 3 16 8 10 6 5 4v-98l3-5 2-8 4-8 5-6 10-6 3-1h26l10 5 5 4 6 10 5 10 1 4 1 178 7 6 4 4v2l4 2v2l4 2v2l4 2v2l4 2v2l4 2v2l4 2v2l4 2v2l4 2v2l4 2v2l4 2v2l4 2v2l4 2 15 15 1-186 3-4 3-7 3-6 5-6 7-4 6-3 9-2 4-1 1 2 12 1 10 5 5 4v2h2l6 8 4 9 1 275 6 6 8 16 5 12 2 6 2 7v9l3 1 1 6v47l-1 7h-2l-1 16-11 23-8 15-4 8-1 262-3 6-2 9-5 9-8 8-7 3-5 1h-24l-7-4-5-3v-2h-2l-4-5-4-9-1-13h-2l-1-2v-173l1-2h2v-4l-6 3-10 9-26 26-1 192-6 11-12 12-7 3-5 1h-20l-7-4-8-7-7-7-4-9-1-113h-2v2l-8 7-26 26-6 3-8 6-5 3-5 4-8 4-11 3-5 2-7 2-1 1-22 2-1 2-11 1h-14l-7-1-2-2-12-1-10-3-11-2-16-8-17-9-6-5-5-1-1 54-3 4-2 9-5 9-8 8-11 4h-11l-5-2-1-1-9-2-2-1v-2l-10-5-5-10-2-9-2-2-1-134-3-1-5-6-7-6-5-6-36-36-8-7-8-8v-2h-2l-1 279-4 10-6 11-7 7-8 4-6 1h-17l-7-3-6-4-10-10-5-10-1-359-3-6-3-9-6-10-3-4-4-9-8-24-2-15-2-3v-39l3-6 1-14 4-11 5-15 6-7 7-14 5-6 1-359 5-10 5-6 10-6zm295 260-8 7-2 5 6-1 3-2 18-1v-4l-5-4zm4 16-3 2-17 2-11 6-35 35v2l-4 2v2l-4 2v2l-4 2v2l-4 2v2l-4 2v2l-4 2v2l-4 2-100 100v3l7 2 4 2h39l3-2v-2h8l16-8 11-6 9-6 10-7 6-4 10-9 10-10 7-8 4-4 2-5 6-7 3-7 4-8 1-1 2-9 2-3 1-12 3-4 1-5h5l5 5v24l-3 3-1 21-3 3-2 6-12 24-5 9-6 7-7 6-2 6-7 7-7 3-10 6-3 3-16 8-14 2-1 3h-55l-2-3-10-2-8-4-7-6h-8l-8 7-2 3v7l5 10 18 18 5 6 7 6 5 6 8 7 51 51 2 3 3-1 1-7 4-2 7-9 3-5 5-6 3-7 6-10 3-3 3-6 5-6 3-6 9-10 10-21 6-8 6-12 6-8 6-9 7-11 3-3 3-6 5-6 3-6 3-3v-2h2l4-5 2-5 6-7 2-5 15-15v-2l4-2 5-6 7-6 5-6 23-23-2-4-4-5-6-5-7-8-31-31zm96 75-4 8-6 7-2 5-8 16-3 3v2h-2l-3 7-8 16-2 3-1 8-3 3-2 6-2 3-2 9-6 11-2 5-8 16-9 17-2 4h-2l-3 7-4 8-6 7-2 5-6 7-2 5-4 8-44 44-5 2-10 9-6 3-9 7 1 4 6 5 48 48 7 8h2l2 4h2v2l9 6 6 3h7l7-6 7-8 24-24v-2l-31-1-3-3-8-4-7-3-7-7-4-7-3-5v-19l3-7 3-9 3-6 12-13 12-12 11-7 5-4h13l1 2-3 5-5 3-8 6-2 2-7 3-22 22-3 11-2 3v20l11 12 3 2h23l10-5 12-11 5-5 6-7 5-5 3-6 5-3 4-6 5-6 3-6 5-6 8-17 2-8 6-12 1-10 3-7v-30l-3-6-2-7-7-8-1-1-42-1v-9l4-5h9l3 3h33l9-5 11-10 5-2 5-5 2-5 10-11 1-6 3-1-3-5-5-4-5-6h-2l-2-4-29-29-8-7zm81 80-6 4-6 3-6 5-8 1-2 2-11 3-5 2-7 2-4 2-12 1 1 4 6 4 8 2 9 5 6 5 5 2 7 7 3 6 6 8 1 8 3 1 1 19 1 1h5l6-5 7-8 7-7 6-5 6-7 14-14v-12l-12-13-25-25z" fill="#01B9EA"/>
<path transform="translate(107,200)" d="m0 0h31l2 1v2l4 2v2h2v2h2v2h2l6 8 3 5 1 4 1 275 2-1 2-5h2l-2 6-2 2 6-1v2h4v2l3 1v3l7-1v-2l6-2 1 8 3 9 5 4 3 3 1 4-2 12 11-6 5-2 9-1 4 3-10 9-9 9-4 5h-2v-3l-5 4 4 2-2 5-2 3h-2l-1 3-2 2-4 13-3 10-2 7v16l4 10 2 6v7h2v3l3 1 3 4 2-1v3l2 1-9 8-1 2v7l5 10 18 18v2l4 2v2l4 2v2l4 2v2l4 2v2l4 2v2l4 2 52 52 1 4-15 14-9 9-13 9-19 8-11 1-5 3h-25l-7-1-4-2-12-2-13-5-11-8-5-5-4-8-1-5v-9l3-4 8-4 9-3 5-2 23-1 7-7 8-13v-11l-4-10-5-5-6-5-13-5h-18l-9 3-8 4-10 9-7 8-5 11-4 12v11l3 8 2 11 6 10 6 8 13 10 19 9 9 3 9 2 3 1h72l3-2 15-1 6-3 11-3 13-4 19-9h2l1 3 7 6v2l4 2 44 44v2l4 2 6 7 2 1v2l4 2 11 6h7l6-5 2-3h2l2-4 25-25 1-2h-31l-2-4 39 1 15-4 16-5 21-10 8-4 8-5 3-1-2 4-10 8-8 5-1 2h-3v2h-2v2l-3 3 1 3 11 1 4-1 3-1 6 2-3 1 1 3-4 1v2l-6 1v2h2v2h10l4 3-7 3-5 2h16l3 2-5 5 3 1 9 1-1 7h3l1-2 2 4 9-1 10 2 6 3 5 1 6 12-2 11-1 13 2 2 6 2v10l4 6 2 1 1-6v-12l5-13 4-7 6-1 1-8 1-15 3-5 2 1-1 1-1 192-6 11-12 12-7 3-5 1h-20l-7-4-8-7-7-7-4-9-1-113h-2v2l-8 7-26 26-6 3-8 6-5 3-5 4-8 4-11 3-5 2-7 2-1 1-22 2-1 2-11 1h-14l-7-1-2-2-12-1-10-3-11-2-16-8-17-9-6-5-5-1-1 54-3 4-2 9-5 9-8 8-11 4h-11l-5-2-1-1-9-2-2-1v-2l-10-5-5-10-2-9-2-2-1-134-3-1-5-6-7-6-5-6-36-36-8-7-8-8v-2h-2l-1 279-4 10-6 11-7 7-8 4-6 1h-17l-7-3-6-4-10-10-5-10-1-359-3-6-3-9-6-10-3-4-4-9-8-24-2-15-2-3v-39l3-6 1-14 4-11 5-15 6-7 7-14 5-6 1-359 5-10 5-6 10-6z" fill="#019FE9"/>
<path transform="translate(599,482)" d="m0 0h16l1 4-2 2-16 3-12 1-21 6-11 4-11 7-9 7-5 4-2 3h-2l-2 4-10 10-9 12-3 5-2 5-6 7-2 5-8 16-4 5h-2l-2 7-8 16-2 3-1 8-3 3-2 6-2 3-2 9-6 11-2 5-8 16-9 17-3 4h-2l-2 7-4 8-6 7-2 5-6 7-2 5-4 8-45 45-5 2-10 9-6 3-7 6-13 5-12 6-17 5-9 3-6 1-11 1-3 2h-72l-5-2-11-2-18-8-10-6-10-8-8-11-4-7-3-14-2-5v-11l6-17 6-10 12-12 8-5 10-3 2-1h18l13 5 9 7 6 10 1 4v11l-9 14-7 7-23 1-10 4-7 3-6 3-1 2v9l3 10 2 5 4 2 8 6 5 3 11 4 15 3 1 1 7 1h25l5-3 11-1 19-8 14-10 17-17 8-6 2-7 5-5 5-6 3-5 5-6 3-7 6-10 3-3 3-6 5-6 3-6 9-10 10-21 6-8 6-12 6-8 6-9 7-11 3-3 3-6 5-6 3-6 4-5h2l5-10 6-7 2-5 11-11 5-6 7-6 6-7 6-5 2-3h2l2-4 8-8 5-3 7-6 7-4 16-11 14-8 20-9 18-5 16-5z" fill="#FBFCFC"/>
<path transform="translate(590,500)" d="m0 0 6 1 10 7 15 15 8 14 6 20v7l-2 5-3 14-9 17-12 13-11 10-12 7-9 6-6 3-6 5-8 1-2 2-11 3-5 2-7 2-4 2h-12l1 3 6 4 8 2 9 5 6 5 5 2 8 8 3 6 6 8 1 8 3 3 1 17 3 2-1 11-2 4-1 14-5 12-6 11-11 16-12 13-18 14-14 9-19 9-24 7-10 1-35-1-8-4-7-3-8-8-4-7-3-5v-19l3-7 3-9 3-6 12-13 13-13 11-7 5-4h13l2 3-3 5-3 3-8 4-5 5-7 3-21 21-3 11-2 3v20l11 12 2 1h23l10-5 12-11 7-8 4-4h2l2-4 4-7 5-3 3-5 5-6 3-6 5-6 8-17 2-8 6-12 1-10 3-7v-30l-3-6-2-7-7-8-42-1-1-1v-9l2-3h2l1-3h9l3 3h33l9-5 11-10 5-2 4-4 2-5 10-11 2-6 5-4 9-21 5-12 4-17 3-14v-7l-6-19-3-6 1-4 12-2z" fill="#FBFCFC"/>
<path transform="translate(440,465)" d="m0 0h39l4 2 8 1 21 1 5 2 18 4 20 7-1 4-2 1-9-1-15-5-13-3-2-1-28-2-9-3h-36l-12 4-22 1-3 2-17 2-11 6-34 34-5 6-7 6-5 6-7 6-104 104-1 3h6l5 3h39l3-3 10-2 16-8 9-5 9-6 10-7 6-4 10-9 9-9 7-8 4-4 2-5 6-7 3-7 4-8 1-1 2-9 2-3 1-12 3-4 2-6h5l5 4 1 2v24l-3 3-1 21-3 3-2 6-12 24-5 9-7 8-6 5-2 6-8 8-7 3-10 6-3 3-16 8-14 2-1 2-10 1h-45l-2-4h-8l-5-3-5-2-7-6-5-2-6-9-6-8-6-14-1-2v-17l5-16 7-14 10-15 9-11 6-5 5-5 12-10 13-9 19-11 16-8 27-12 33-11 22-6 13-3 13-2 5-3h31z" fill="#FAFCFC"/>
<path transform="translate(107,200)" d="m0 0h31l2 1v2l4 2v2h2v2h2v2h2l6 8 2 6v43l-1 174-1 11-4 2-4-10v-2h-2l-6-8-2-3-5-3-4-10-3-8-3-3-5-19-1-3-3-1-4-6-4-7-4-16-3-5-2 2-2 9-1 17-2 43v41l-1 4h-1l-1 7-2 1v-28-4-8l-1-9-1-119v-87l5-8 4-5 10-6z" fill="#01B9EA"/>
<path transform="translate(382,481)" d="m0 0 2 1-10 6-33 33-5 6-7 6-5 6-7 6-105 105-5-2-6-8-6-14v-16l5-15 8-14 10-15 15-15 14-11 11-8 15-10 23-12 24-10 51-18h8z" fill="#01B9EA"/>
<path transform="translate(531,108)" d="m0 0h18l10 5 5 4v2l4 2 7 8 2 9 3 5v10l-8 16-5 7-5 4-11 4h-25l-4-3-5-2-3-2v-2l-3-1-7-8-2-10-2-2v-11l3-7 2-7 11-12 6-5z" fill="#01B9EA"/>
<path transform="translate(683,156)" d="m0 0h26l10 5 9 8 4 7 2 7 2 5v13l-6 11-7 8-10 8-10 4h-16l-5-3-5-2-9-8-8-10-1-7-3-4v-7l3-7 3-9 3-6 6-7z" fill="#01B9EA"/>
<path transform="translate(111,80)" d="m0 0h22l10 5 9 8 4 7 2 7 2 5v14l-3 4-2 9-12 12-8 4-5 1h-20l-7-4-8-6-11-12v-31l4-6 10-10 10-6z" fill="#01B9EA"/>
<path transform="translate(255,537)" d="m0 0 2 1v3h-2l-1 3-5 4h-2l-2 4h-2v5l3 1h2l2-4 5-2 1 1 11-4 6-1-5 6 3 2-2 4-3 2-1 4-6 6 1 3 9 1 3 2v5l-2 1-2 4h-2l-2 4h-2l-2 4-1 3 20-20h2v-2l8-7 4-2-6 7-74 74-1-2-4-1-5-7-5-12-1-11 2-10 6-16 9-14 5-8 18-18 10-7 4-2z" fill="#019FE9"/>
<path transform="translate(270,296)" d="m0 0h15l17 8 9 17 1 4v22l-2 1-2-16-5-12-4-5-3-2v-2h-2l-4-4-4-2-14-1-8 3-6 1-5 2-2 5-5 8-4 11-2 11-1 9-1 68-2 4v-96l9-17 9-10 4-3 9-2z" fill="#019FE9"/>
<path transform="translate(683,1035)" d="m0 0 6 2 6 3 5-1 4-2 5 1v11l-4 5h-13l-8-3-2-5v-10z" fill="#029FE9"/>
<path transform="translate(578,245)" d="m0 0 2 4v178l-2-1-1-67v-57z" fill="#01ABE9"/>
<path transform="translate(657,851)" d="m0 0h2l-1 15v32l1 127v3h-2l-1-2v-173z" fill="#019FE9"/>
<path transform="translate(669,988)" d="m0 0 4 2 4 12v8l1 10-5 1-5-1-1-4v-17l1-10z" fill="#029FE9"/>
<path transform="translate(661,305)" d="m0 0 1 2-3 7-1 11-1 170h-1v-181l3-4z" fill="#019FE9"/>
<path transform="translate(181,481)" d="m0 0 4 4h5l-2 5-5 8-6 1-2-5-5 2 2-5 6-5z" fill="#01A0E9"/>
<path transform="translate(607,869)" d="m0 0h4l4 2-1 4-3 4-3 1-2 3-2-1 2-12z" fill="#029FE9"/>
<path transform="translate(290,783)" d="m0 0h3l-2 4-12 11-10 10-4 3-2-1 13-12 13-13z" fill="#01BAEB"/>
<path transform="translate(388,531)" d="m0 0 3 1 1 2v24l-2 1-1-24z" fill="#01B7EA"/>
<path transform="translate(532,813)" d="m0 0 5 1-4 3-2 3-7 3-9 6-2-1 11-8z" fill="#01B3EA"/>
<path transform="translate(592,954)" d="m0 0h2l1 7-1 8-4-1 2-6z" fill="#01BAEB"/>
<path transform="translate(481,527)" d="m0 0 2 1-2 4-8 7-2-1 7-7h2z" fill="#01A5E9"/>
<path transform="translate(558,786)" d="m0 0 2 1-4 8-5 4 2-5z" fill="#029FE9"/>
<path transform="translate(388,531)" d="m0 0 3 1 1 2v9l-2 1z" fill="#01A5E9"/>
<path transform="translate(181,486)" d="m0 0h2l1 5-4 1-3-3z" fill="#01BAEB"/>
</svg>
