<?xml version="1.0" encoding="UTF-8"?>
<svg version="1.1" xmlns="http://www.w3.org/2000/svg" width="366" height="363">
<path d="M0 0 C0.7321875 0.02835937 1.464375 0.05671875 2.21875 0.0859375 C7.56716164 0.35335808 12.40679547 1.96730593 17.4375 3.6875 C18.1294043 3.91912842 18.82130859 4.15075684 19.53417969 4.3894043 C30.74011651 8.40219941 38.75660951 15.17448983 47.0300293 23.56005859 C48.09317391 24.62269327 49.15719511 25.68445154 50.22201538 26.7454071 C53.08834493 29.60635628 55.94218562 32.47946597 58.79368949 35.35518217 C61.79300207 38.37593189 64.8033985 41.3855983 67.81245422 44.39663696 C72.86153652 49.45214938 77.90318334 54.51497546 82.93969727 59.58300781 C89.38677182 66.07037712 95.84525416 72.54625942 102.30769634 79.01831627 C107.88724348 84.60619244 113.46233572 90.19850707 119.03629708 95.79195452 C120.22714531 96.98683989 121.4181417 98.18157762 122.60928702 99.37616682 C126.0068949 102.78362083 129.40209635 106.19343507 132.7934227 109.60714149 C133.81686028 110.63664832 134.84109559 111.66536289 135.86622429 112.69318581 C140.9082144 117.74966089 145.85930191 122.8171688 150.45225239 128.28855324 C152.17747747 130.19624856 154.04628038 131.82961016 156 133.5 C161.73483139 139.15688223 164.26988627 146.57500449 167 154 C167.54527344 155.41539062 167.54527344 155.41539062 168.1015625 156.859375 C171.43678849 167.39494868 170.40910409 179.09324453 170 190 C169.94779297 191.74023438 169.94779297 191.74023438 169.89453125 193.515625 C168.93542284 203.24571032 163.05264164 217.56756805 155.61328125 224.09375 C154.75089844 224.7228125 153.88851563 225.351875 153 226 C151.94676713 227.15939185 150.91996451 228.34299439 149.91088867 229.54101562 C145.76560093 234.3406699 141.31788146 238.79038778 136.8125 243.25 C135.52049683 244.53632324 135.52049683 244.53632324 134.20239258 245.84863281 C130.54986017 249.48494939 126.89136365 253.11524371 123.23339844 256.74609375 C120.54934844 259.41197597 117.86836759 262.0809181 115.1875 264.75 C114.37063721 265.55856445 113.55377441 266.36712891 112.7121582 267.20019531 C108.5230403 271.37152043 104.52406757 275.6249876 100.66918945 280.10595703 C97.91659222 283.22935169 94.96317327 286.14043756 92 289.0625 C91.360625 289.69808838 90.72125 290.33367676 90.0625 290.98852539 C87.36581517 293.66908015 84.6631227 296.34354664 81.9609375 299.01855469 C72.46116675 308.37974008 72.46116675 308.37974008 63.52685547 318.27294922 C60.5918141 321.59282172 57.31603999 324.55995634 54.0625 327.5625 C53.39798828 328.18318359 52.73347656 328.80386719 52.04882812 329.44335938 C33.82781989 346.39190147 14.22105296 359.31451848 -11.76953125 358.41015625 C-31.09643695 355.95631695 -45.70862902 349.57207063 -60.1015625 336.4765625 C-63.06396657 333.78336056 -66.13519831 331.27002484 -69.26171875 328.76953125 C-75.27067406 323.88519154 -80.73897109 318.5573665 -86.1875 313.0625 C-87.14875764 312.10839046 -88.11034506 311.15461306 -89.07226562 310.20117188 C-89.97009766 309.30076172 -90.86792969 308.40035156 -91.79296875 307.47265625 C-92.6027417 306.66062744 -93.41251465 305.84859863 -94.24682617 305.01196289 C-96 303 -96 303 -96 301 C-96.99 300.67 -97.98 300.34 -99 300 C-102.28454001 297.00527234 -105.17094817 293.69303322 -108.125 290.375 C-114.2813201 283.50163763 -120.66935871 276.84136543 -127.671875 270.82373047 C-131.98064983 267.06357199 -136.06591933 263.11244626 -140.12109375 259.08203125 C-140.86529068 258.34353439 -141.60948761 257.60503754 -142.37623596 256.84416199 C-143.93978773 255.28999422 -145.50193903 253.73441636 -147.06274414 252.17749023 C-149.42079152 249.82913977 -151.78931354 247.49170293 -154.15820312 245.15429688 C-173.53083841 225.91940202 -187.26647953 206.5559601 -187.4375 178.3125 C-187.35144169 169.84023198 -186.70509228 162.0802972 -184 154 C-183.7215625 153.13761719 -183.443125 152.27523437 -183.15625 151.38671875 C-181.08073161 145.63431218 -178.08758114 140.70490913 -174.68359375 135.640625 C-172.93617481 133.03193362 -172.93617481 133.03193362 -171.68481445 130.14111328 C-169.90963806 126.83153214 -168.04295194 124.71285276 -165.359375 122.1015625 C-164.45316406 121.20953125 -163.54695313 120.3175 -162.61328125 119.3984375 C-161.66839844 118.48320313 -160.72351563 117.56796875 -159.75 116.625 C-154.13058636 111.13808293 -148.57765355 105.68707151 -143.47070312 99.71533203 C-141.51812273 97.43796984 -139.47288773 95.26865983 -137.375 93.125 C-136.66085938 92.38507813 -135.94671875 91.64515625 -135.2109375 90.8828125 C-133 89 -133 89 -130.5078125 88.05078125 C-127.24268961 86.68268459 -125.75595049 84.76725755 -123.5 82.0625 C-121.1873528 79.29790942 -119.38191067 77.22881717 -116.28125 75.37109375 C-113.68854393 74.14932825 -113.68854393 74.14932825 -113 71 C-111.6672213 70.33222522 -110.33382425 69.66568393 -109 69 C-107.42592226 67.16676818 -107.42592226 67.16676818 -106.0625 65.0625 C-104.1828775 62.41394102 -103.16175424 61.09404316 -100.3125 59.4375 C-97.67265694 58.11390481 -97.67265694 58.11390481 -96.70703125 54.75 C-95.09497392 50.78759657 -92.58916328 48.30665616 -89.375 45.5625 C-88.20843258 44.52739569 -87.04313516 43.49085885 -85.87890625 42.453125 C-85.25516113 41.90205078 -84.63141602 41.35097656 -83.98876953 40.78320312 C-80.36255893 37.53181076 -76.84737514 34.1624403 -73.3125 30.8125 C-71.8520872 29.44214893 -70.39116421 28.07234135 -68.9296875 26.703125 C-66.67844305 24.5911876 -64.45648481 22.46422719 -62.2578125 20.296875 C-45.51583067 4.17496657 -22.86519416 -2.58737723 0 0 Z M-16 76 C-10.06 75.505 -10.06 75.505 -4 75 C-4.33 74.01 -4.66 73.02 -5 72 C-10.90707046 71.54560996 -11.52300901 71.52300901 -16 76 Z M-45.38671875 104.92578125 C-48.93041048 109.0089517 -52.76977351 112.66056887 -56.75 116.3125 C-63.32586345 122.42671937 -69.77104741 128.65538779 -76.125 135 C-76.90584961 135.77641846 -77.68669922 136.55283691 -78.49121094 137.3527832 C-82.59039779 141.4621253 -86.49838598 145.66496033 -90.28515625 150.0625 C-93.1941962 153.34925128 -96.31359153 156.41906593 -99.4375 159.5 C-100.07365234 160.13164062 -100.70980469 160.76328125 -101.36523438 161.4140625 C-102.90782806 162.94505774 -104.45357314 164.47287667 -106 166 C-99.43807507 170.37461662 -88.63486657 168.6926594 -81 168 C-76.53398557 166.94362489 -72.95019033 165.30282755 -69 163 C-67.98808594 162.45730469 -66.97617188 161.91460937 -65.93359375 161.35546875 C-56.52666146 156.13986048 -48.74830204 149.90025653 -41.125 142.375 C-40.56498291 141.82440918 -40.00496582 141.27381836 -39.42797852 140.70654297 C-36.41586595 137.67018713 -34.05251168 134.79022095 -32 131 C-31.5771875 130.34 -31.154375 129.68 -30.71875 129 C-26.85446245 122.65860505 -25.4321245 116.2283581 -24 109 C-23.67644902 107.66425914 -23.34770701 106.32965737 -23 105 C-18.125 106.875 -18.125 106.875 -17 108 C-16.90126184 109.99799572 -16.87028201 111.99957158 -16.875 114 C-16.87113281 115.6396875 -16.87113281 115.6396875 -16.8671875 117.3125 C-17 120 -17 120 -18 121 C-18.02753831 122.5207267 -18.04663375 124.04160674 -18.0625 125.5625 C-18.96822832 136.76723584 -26.27251247 148.2393897 -33 157 C-33.59683594 157.80695313 -34.19367188 158.61390625 -34.80859375 159.4453125 C-39.16279745 164.82839231 -43.8647724 168.51942809 -49.8125 171.9375 C-50.43946777 172.30294922 -51.06643555 172.66839844 -51.71240234 173.04492188 C-61.62089052 178.4035685 -72.15977566 179.45836313 -83.25 179.6875 C-84.38824219 179.72166016 -85.52648437 179.75582031 -86.69921875 179.79101562 C-89.46604702 179.87239293 -92.2326023 179.94189107 -95 180 C-95 179.34 -95 178.68 -95 178 C-95.60328125 177.81824219 -96.2065625 177.63648438 -96.828125 177.44921875 C-103.58220503 175.32495164 -103.58220503 175.32495164 -106.25 173.25 C-107.98994071 171.73400405 -107.98994071 171.73400405 -110.5625 172.125 C-113.24319828 173.08730195 -114.49253317 173.57130344 -116 176 C-116.20956753 180.50570184 -114.53875363 182.81268404 -111.6875 186.0625 C-110.74390625 187.06990234 -110.74390625 187.06990234 -109.78125 188.09765625 C-108 190 -108 190 -105.6875 193 C-105.130625 193.66 -104.57375 194.32 -104 195 C-103.34 195 -102.68 195 -102 195 C-102 195.66 -102 196.32 -102 197 C-101.34 197 -100.68 197 -100 197 C-100 197.66 -100 198.32 -100 199 C-99.34 199 -98.68 199 -98 199 C-98 199.66 -98 200.32 -98 201 C-97.34 201 -96.68 201 -96 201 C-96 201.66 -96 202.32 -96 203 C-95.34 203 -94.68 203 -94 203 C-94 203.66 -94 204.32 -94 205 C-92.56694469 206.45164904 -92.56694469 206.45164904 -90.65625 207.97265625 C-85.31719676 212.51249936 -80.42952259 217.46140488 -75.5 222.4375 C-74.5821875 223.35982422 -73.664375 224.28214844 -72.71875 225.23242188 C-70.47684945 227.48599899 -68.237334 229.74189075 -66 232 C-65.37673828 231.21987549 -64.75347656 230.43975098 -64.11132812 229.63598633 C-62.82161064 228.02577823 -61.52561414 226.42054184 -60.21875 224.82421875 C-56.93228583 220.73854625 -54.29698737 216.85130117 -52.08984375 212.10546875 C-49.27689991 206.67114355 -45.49844143 201.68117819 -41.4375 197.125 C-38.48852414 193.34426172 -36.60321464 189.36419986 -34.515625 185.0625 C-28.09212464 172.08305598 -19.12313385 160.33509912 -10.75610352 148.55957031 C-9.60380355 146.88006067 -8.49490265 145.16976348 -7.4362793 143.4296875 C-1.66190465 134.10628399 5.68225339 126.85848369 13.5 119.25 C14.81343691 117.95667996 16.12594372 116.66241465 17.4375 115.3671875 C20.61440684 112.23381537 23.80354043 109.11341806 27 106 C23.9139092 100.49369947 19.8743406 96.17999531 15.515625 91.65063477 C14.13654997 90.1996522 12.79839006 88.71013893 11.4609375 87.22070312 C6.36241496 81.88907115 6.36241496 81.88907115 -0.37280273 79.32617188 C-21.14440727 79.12497978 -32.65251339 90.07280252 -45.38671875 104.92578125 Z M38 118 C37.46890625 118.94101563 36.9378125 119.88203125 36.390625 120.8515625 C35.67720096 122.10944172 34.96365265 123.36725047 34.25 124.625 C33.90195313 125.24246094 33.55390625 125.85992187 33.1953125 126.49609375 C31.5182527 129.44647674 29.8000743 132.29951416 27.9140625 135.125 C23.30389603 142.04965821 20.08401418 149.5581867 17.3125 157.375 C14.80433405 164.38520241 11.69464856 171.02625842 8.375 177.6875 C7.90747314 178.63222168 7.43994629 179.57694336 6.95825195 180.55029297 C4.65034926 185.11025869 2.33466477 189.09367841 -1 193 C-2.03190368 194.81358469 -2.03190368 194.81358469 -2.8125 196.625 C-8.87876628 209.18406691 -17.67391831 218.85263021 -27.4375 228.625 C-28.50581055 229.71167969 -28.50581055 229.71167969 -29.59570312 230.8203125 C-33.57887617 234.81433888 -37.62325503 238.41237881 -42.20922852 241.70117188 C-44.92149727 243.66835249 -47.44787589 245.83069451 -50 248 C-47.81808631 251.00013132 -45.50953924 253.49563358 -42.6875 255.875 C-38.36106948 259.57287363 -34.33819418 263.5441297 -30.3125 267.5625 C-29.67078857 268.19978027 -29.02907715 268.83706055 -28.36791992 269.49365234 C-25.48477956 272.3854058 -22.72222858 275.27646156 -20.16796875 278.46484375 C-19.09482422 279.71974609 -19.09482422 279.71974609 -18 281 C-17.34 281 -16.68 281 -16 281 C-16 281.66 -16 282.32 -16 283 C-12.27040977 285.85203959 -9.63994447 286.47484812 -5 286 C-2.66545199 284.50087577 -2.66545199 284.50087577 -0.6953125 282.31640625 C0.05234375 281.55392578 0.8 280.79144531 1.5703125 280.00585938 C2.71113281 278.79639648 2.71113281 278.79639648 3.875 277.5625 C4.65875 276.76005859 5.4425 275.95761719 6.25 275.13085938 C9.95451639 271.97918186 9.95451639 271.97918186 12 268 C7.05 268 2.1 268 -3 268 C-3 267.34 -3 266.68 -3 266 C-3.99580078 265.58041016 -3.99580078 265.58041016 -5.01171875 265.15234375 C-9.91164458 262.92770589 -14.3441938 260.90886138 -17.22265625 256.20703125 C-19.73297333 249.07974909 -18.8245719 240.43091646 -15.73046875 233.6171875 C-10.73429092 226.06089147 -1.47781465 215.5451668 7.5546875 213.390625 C8.32039063 213.34421875 9.08609375 213.2978125 9.875 213.25 C10.65617187 213.19328125 11.43734375 213.1365625 12.2421875 213.078125 C12.82226562 213.05234375 13.40234375 213.0265625 14 213 C11.80167757 217.33682656 9.50673564 219.25174124 5.375 221.75 C-1.4868466 226.17189387 -8.10886478 230.83950252 -11.5625 238.4375 C-12.68073584 247.22100914 -12.68073584 247.22100914 -10.375 255.625 C-7.41930679 258.62328245 -4.11486342 258.48806692 -0.0625 258.625 C8.46186298 258.56934583 13.0351378 254.31698746 18.8125 248.5 C19.30169922 248.02691406 19.79089844 247.55382812 20.29492188 247.06640625 C22.95869223 244.40632023 24.14021402 242.59690283 25 239 C26.31774768 238.30303281 27.65387173 237.64043805 29 237 C39.96816316 225.3986233 46.34798633 207.83001312 46.375 192 C46.41173828 190.86691406 46.41173828 190.86691406 46.44921875 189.7109375 C46.47877811 183.97642234 45.04109592 179.85337242 42 175 C40.98363023 173.76078789 40.98363023 173.76078789 38.86694336 173.88647461 C37.49227905 173.89432983 37.49227905 173.89432983 36.08984375 173.90234375 C35.10048828 173.90556641 34.11113281 173.90878906 33.09179688 173.91210938 C32.05087891 173.92048828 31.00996094 173.92886719 29.9375 173.9375 C28.37032227 173.94426758 28.37032227 173.94426758 26.77148438 173.95117188 C24.1809334 173.96300087 21.59049441 173.97948311 19 174 C19.875 167.125 19.875 167.125 21 166 C22.75069833 165.99811347 24.50153372 166.06004154 26.25 166.1484375 C27.33410156 166.18324219 28.41820312 166.21804687 29.53515625 166.25390625 C31.81478999 166.33357778 34.09373615 166.43710089 36.37109375 166.56640625 C43.61895042 166.74568186 47.64421068 165.77989531 53.09765625 160.90869141 C53.72542969 160.27882324 54.35320312 159.64895508 55 159 C55.70680908 158.30438965 56.41361816 157.6087793 57.1418457 156.89208984 C58.98438444 155.01590074 60.59735648 153.09293954 62.1875 151 C62.69667969 150.34 63.20585937 149.68 63.73046875 149 C65.05368754 146.91542147 65.76998185 145.46019411 66 143 C63.77069744 140.18731921 63.77069744 140.18731921 61 138 C60.34 138 59.68 138 59 138 C58.74404053 137.42024414 58.48808105 136.84048828 58.22436523 136.24316406 C55.96747002 132.10829801 52.3776682 129.05058962 49.0625 125.75 C48.33353516 125.00492187 47.60457031 124.25984375 46.85351562 123.4921875 C45.79874023 122.43644531 45.79874023 122.43644531 44.72265625 121.359375 C43.75984741 120.39209473 43.75984741 120.39209473 42.77758789 119.40527344 C40.98542554 117.68991767 40.98542554 117.68991767 38 118 Z M75.25 159.75 C70.43391145 163.02247043 65.59846272 164.60332186 60.015625 166.140625 C57.24505635 166.93016529 54.66957663 167.92856789 52 169 C50.0075675 169.37593066 48.0081326 169.71979545 46 170 C48.8068327 172.23901367 51.55372343 173.8191079 54.8125 175.3125 C62.9023047 179.29187374 68.61497482 184.35125616 72.1875 192.8125 C73.21694705 196.85109998 73.64986908 200.85371281 74 205 C78.13526174 203.65747579 80.22985921 202.01055196 83 198.6875 C86.42258591 194.67635726 89.90261282 190.85504202 93.859375 187.35546875 C94.50390625 186.76378906 95.1484375 186.17210937 95.8125 185.5625 C96.71935547 184.76005859 96.71935547 184.76005859 97.64453125 183.94140625 C99.5935419 181.14988379 99.3612133 179.35062694 99 176 C97.30615893 173.46789702 97.30615893 173.46789702 94.87890625 171.2578125 C94.02619141 170.41992188 93.17347656 169.58203125 92.29492188 168.71875 C91.39322266 167.8628125 90.49152344 167.006875 89.5625 166.125 C88.66466797 165.24585938 87.76683594 164.36671875 86.84179688 163.4609375 C81.48012462 157.06884198 81.48012462 157.06884198 75.25 159.75 Z " fill="#01B9EA" transform="translate(192,3)"/>
<path d="M0 0 C0.99 0.33 1.98 0.66 3 1 C3 1.99 3 2.98 3 4 C3.9590625 4.185625 3.9590625 4.185625 4.9375 4.375 C5.9584375 4.684375 5.9584375 4.684375 7 5 C7.495 5.99 7.495 5.99 8 7 C11.465 6.505 11.465 6.505 15 6 C15.18175781 6.61488281 15.36351563 7.22976562 15.55078125 7.86328125 C15.80214844 8.67152344 16.05351563 9.47976562 16.3125 10.3125 C16.55613281 11.11300781 16.79976563 11.91351563 17.05078125 12.73828125 C17.8520375 15.05680937 17.8520375 15.05680937 19.59375 16.5625 C21 18 21 18 21.1875 21.6875 C21.0946875 23.3271875 21.0946875 23.3271875 21 25 C22.051875 24.34 23.10375 23.68 24.1875 23 C27.26623937 21.2228415 29.38596328 20.56193494 33 21 C33.495 22.98 33.495 22.98 34 25 C33.030625 25.70125 32.06125 26.4025 31.0625 27.125 C22.78547167 34.22440235 15.0815197 46.90567884 13.62890625 57.77734375 C13.25067043 66.13291689 15.98264199 71.27404276 20.75 77.875 C23 81 23 81 23 83 C21.37373596 84.38232443 19.7074998 85.71937515 18 87 C18.15996577 93.39863087 21.76638773 96.66470709 26 101 C26.85464844 101.79857422 26.85464844 101.79857422 27.7265625 102.61328125 C29 104 29 104 29 106 C29.66 106 30.32 106 31 106 C31 106.66 31 107.32 31 108 C31.66 108 32.32 108 33 108 C33 108.66 33 109.32 33 110 C33.66 110 34.32 110 35 110 C35 110.66 35 111.32 35 112 C35.66 112 36.32 112 37 112 C37 112.66 37 113.32 37 114 C37.66 114 38.32 114 39 114 C39 114.66 39 115.32 39 116 C39.54293701 116.22059082 40.08587402 116.44118164 40.64526367 116.66845703 C43.76660909 118.43349777 46.14624863 120.80188617 48.67578125 123.3046875 C49.20519821 123.82507599 49.73461517 124.34546448 50.28007507 124.88162231 C51.39295341 125.98003406 52.50307652 127.08124348 53.6105957 128.18505859 C55.31212681 129.87462943 57.03142393 131.54465115 58.75195312 133.21484375 C59.83187272 134.28530591 60.91068831 135.35688322 61.98828125 136.4296875 C62.50586502 136.92773895 63.02344879 137.42579041 63.55671692 137.93893433 C64.97387695 139.37451172 64.97387695 139.37451172 67 142 C66.94786824 145.36552047 65.8501663 146.16942918 63.55078125 148.76953125 C62.48451523 149.79768036 61.40413865 150.81133125 60.3125 151.8125 C59.73741699 152.34077393 59.16233398 152.86904785 58.56982422 153.41333008 C46.06185602 164.44351375 32.48781464 166.85534751 16.22998047 166.17919922 C7.47611325 165.47574635 -1.53370117 162.04523751 -8 156 C-10.04381468 152.07587582 -10.58622277 148.39667077 -10 144 C-6.36503533 139.91066475 -0.31382799 138.15305477 5.01171875 137.80078125 C6.05972656 137.76339844 7.10773438 137.72601563 8.1875 137.6875 C12.27088581 137.50630572 12.27088581 137.50630572 15.80859375 135.71484375 C17.33537486 133.95215946 17.33537486 133.95215946 19 131 C19.66 130.01 20.32 129.02 21 128 C21.42763893 122.69727728 21.53414849 119.24097818 18 115 C11.00548724 109.75411543 5.49288774 109.59288421 -3 110 C-8.9175719 111.02419514 -13.08732977 114.58818254 -17 119 C-21.93836834 127.02788942 -24.00495 133.95751114 -22.375 143.375 C-20.43728614 151.12585543 -16.41999131 156.38548082 -9.8125 160.8125 C-4.45783667 163.96531407 1.05900973 166.20903697 7 168 C7.54487061 168.1757959 8.08974121 168.3515918 8.65112305 168.53271484 C12.08378156 169.21560731 15.50565984 169.18322973 18.9921875 169.203125 C19.77457794 169.20882507 20.55696838 169.21452515 21.36306763 169.22039795 C23.02230486 169.22983585 24.68156073 169.23637713 26.34082031 169.24023438 C28.83173406 169.24983327 31.32178352 169.28082157 33.8125 169.3125 C48.5797172 169.41062962 61.64578462 166.938306 75.28125 161.0078125 C78.50209204 159.64977089 80.46312239 158.88577072 83.9375 159.625 C86 161 86 161 87 164 C88.32606404 164.6810113 89.66098317 165.34482357 91 166 C92.63449663 167.44978805 94.21858525 168.95723215 95.765625 170.5 C96.65507812 171.386875 97.54453125 172.27375 98.4609375 173.1875 C99.38132813 174.115625 100.30171875 175.04375 101.25 176 C102.18585938 176.928125 103.12171875 177.85625 104.0859375 178.8125 C104.97023437 179.699375 105.85453125 180.58625 106.765625 181.5 C107.57805664 182.3146875 108.39048828 183.129375 109.22753906 183.96875 C111 186 111 186 111 188 C112.32 188.66 113.64 189.32 115 190 C115 190.66 115 191.32 115 192 C115.66 192 116.32 192 117 192 C117 192.66 117 193.32 117 194 C120.90648662 195.83834664 123.70680758 196.72221929 128 196 C131.11301448 193.64014654 133.71335163 190.84935955 136.375 188 C137.11105469 187.236875 137.84710938 186.47375 138.60546875 185.6875 C140.41748306 183.80488773 142.21061984 181.90413851 144 180 C139.38 179.67 134.76 179.34 130 179 C130 178.34 130 177.68 130 177 C130.95869995 176.97812622 130.95869995 176.97812622 131.93676758 176.95581055 C134.8958845 176.88030517 137.8539959 176.78399275 140.8125 176.6875 C141.81732422 176.66494141 142.82214844 176.64238281 143.85742188 176.61914062 C153.66003415 176.27242444 162.32218944 174.36294465 170.875 169.5 C171.92429688 168.9121875 172.97359375 168.324375 174.0546875 167.71875 C175.97179908 166.60001115 177.87404655 165.45526844 179.7578125 164.28125 C182 163 182 163 184 163 C184 163.66 184 164.32 184 165 C181.8828125 166.7265625 181.8828125 166.7265625 179.125 168.625 C178.22007812 169.25664062 177.31515625 169.88828125 176.3828125 170.5390625 C174 172 174 172 172 172 C171.67 173.32 171.34 174.64 171 176 C174.3 176 177.6 176 181 176 C181.33 176.66 181.66 177.32 182 178 C181.34 178.99 180.68 179.98 180 181 C179.01 181 178.02 181 177 181 C177 181.66 177 182.32 177 183 C178.98 183 180.96 183 183 183 C183 183.99 183 184.98 183 186 C184.65 186.66 186.3 187.32 188 188 C187.67 188.66 187.34 189.32 187 190 C188.65 190.66 190.3 191.32 192 192 C192 192.99 192 193.98 192 195 C193.06927734 195.05607422 193.06927734 195.05607422 194.16015625 195.11328125 C200.05325317 195.51778723 204.8389532 196.03514333 210 199 C212.60923299 202.96603414 212.36936097 206.53979577 211.86328125 211.125 C210.56325326 215.45450497 207.97943062 217.73402097 204.6171875 220.63671875 C202.42855144 222.61302445 200.59994744 224.56460451 198.69140625 226.796875 C195.06417665 231.00922061 191.14446098 234.7954444 187.0625 238.5625 C186.39798828 239.18318359 185.73347656 239.80386719 185.04882812 240.44335938 C166.82781989 257.39190147 147.22105296 270.31451848 121.23046875 269.41015625 C101.90356305 266.95631695 87.29137098 260.57207063 72.8984375 247.4765625 C69.93603343 244.78336056 66.86480169 242.27002484 63.73828125 239.76953125 C57.72932594 234.88519154 52.26102891 229.5573665 46.8125 224.0625 C45.85124236 223.10839046 44.88965494 222.15461306 43.92773438 221.20117188 C43.02990234 220.30076172 42.13207031 219.40035156 41.20703125 218.47265625 C40.3972583 217.66062744 39.58748535 216.84859863 38.75317383 216.01196289 C37 214 37 214 37 212 C36.01 211.67 35.02 211.34 34 211 C30.71545999 208.00527234 27.82905183 204.69303322 24.875 201.375 C18.7186799 194.50163763 12.33064129 187.84136543 5.328125 181.82373047 C1.01935017 178.06357199 -3.06591933 174.11244626 -7.12109375 170.08203125 C-7.86529068 169.34353439 -8.60948761 168.60503754 -9.37623596 167.84416199 C-10.93978773 166.28999422 -12.50193903 164.73441636 -14.06274414 163.17749023 C-16.42079152 160.82913977 -18.78931354 158.49170293 -21.15820312 156.15429688 C-40.53083841 136.91940202 -54.26647953 117.5559601 -54.4375 89.3125 C-54.35144169 80.84023198 -53.70509228 73.0802972 -51 65 C-50.7215625 64.13761719 -50.443125 63.27523437 -50.15625 62.38671875 C-48.08073161 56.63431218 -45.08758114 51.70490913 -41.68359375 46.640625 C-39.93617481 44.03193362 -39.93617481 44.03193362 -38.68481445 41.14111328 C-36.90963806 37.83153214 -35.04295194 35.71285276 -32.359375 33.1015625 C-31.45316406 32.20953125 -30.54695313 31.3175 -29.61328125 30.3984375 C-28.66839844 29.48320313 -27.72351563 28.56796875 -26.75 27.625 C-21.13450122 22.14190549 -15.593035 16.69398022 -10.49267578 10.72412109 C-8.45610388 8.37177062 -6.27888776 6.18228949 -4.0625 4 C-3.29035156 3.236875 -2.51820312 2.47375 -1.72265625 1.6875 C-1.15417969 1.130625 -0.58570313 0.57375 0 0 Z " fill="#019FE9" transform="translate(59,92)"/>
<path d="M0 0 C-0.33 1.32 -0.66 2.64 -1 4 C-2.59328125 4.16435547 -2.59328125 4.16435547 -4.21875 4.33203125 C-11.57980056 5.13899599 -18.18276656 5.95659222 -25 9 C-25.62648438 9.19078125 -26.25296875 9.3815625 -26.8984375 9.578125 C-32.49928102 11.30486727 -36.37755925 14.46647936 -40.80078125 18.2578125 C-43 20 -43 20 -46 21 C-46.71132777 22.31005153 -47.37420717 23.64700127 -48 25 C-48.90477308 26.09050363 -49.84430902 27.15288958 -50.8125 28.1875 C-53.59719007 31.36808577 -55.60298012 34.60618977 -57.578125 38.33203125 C-59.36081682 41.67702717 -61.23986537 44.96196449 -63.125 48.25 C-63.46192871 48.84047119 -63.79885742 49.43094238 -64.14599609 50.03930664 C-66.0580321 53.38418704 -68.01784544 56.69640906 -70 60 C-72.35254584 64.29948032 -74.22319534 68.53840272 -75.86254883 73.15966797 C-78.62913269 80.92771822 -81.94654258 88.30619624 -85.625 95.6875 C-86.09236572 96.63189941 -86.55973145 97.57629883 -87.04125977 98.54931641 C-89.34933027 103.10963356 -91.66508187 107.09338162 -95 111 C-96.03190368 112.81358469 -96.03190368 112.81358469 -96.8125 114.625 C-102.98888054 127.41203783 -111.99884159 137.17795453 -121.9375 147.125 C-122.69740234 147.89714844 -123.45730469 148.66929687 -124.24023438 149.46484375 C-128.38280395 153.61802623 -132.56421209 157.38359281 -137.34277344 160.79199219 C-139.17130935 162.07705873 -139.17130935 162.07705873 -141.3125 164.125 C-145.50228001 167.04810234 -150.19180178 168.36330206 -155 170 C-156.77097738 170.68712885 -158.54181205 171.37462565 -160.3125 172.0625 C-172.32988532 176.33828167 -183.68058961 177.49051609 -196.31494141 177.39111328 C-198.761301 177.37492522 -201.20603158 177.3911093 -203.65234375 177.41015625 C-214.62866629 177.42594652 -223.39923901 176.11973869 -233.3125 171.0625 C-234.27800781 170.57910156 -235.24351562 170.09570312 -236.23828125 169.59765625 C-243.13002641 165.6107768 -248.15098749 160.24909239 -250.82421875 152.66015625 C-251.35992021 150.4375651 -251.72640315 148.26874928 -252 146 C-252.144375 144.906875 -252.28875 143.81375 -252.4375 142.6875 C-251.26150414 132.77553493 -246.6519015 125.24318324 -239 119 C-233.06179787 115.04119858 -225.92796351 115.48228534 -219 116 C-213.11602261 118.03264673 -209.41428873 121.87856691 -206 127 C-205.27276627 132.36334879 -205.61254208 135.00648927 -208.875 139.375 C-213.46508304 144.94075287 -213.46508304 144.94075287 -216.46875 145.2734375 C-217.4690625 145.30695313 -218.469375 145.34046875 -219.5 145.375 C-225.19312891 145.74584314 -232.7326133 146.7326133 -237 151 C-237.31274622 155.48269583 -237.1526948 159.02579421 -235 163 C-222.90320064 172.84511789 -208.07459408 173.08671347 -193.265625 171.75390625 C-183.44246323 170.01513492 -175.17743933 164.60639371 -167.9375 158 C-167.38932617 157.50193848 -166.84115234 157.00387695 -166.27636719 156.49072266 C-162.90616306 153.2733264 -160.99779652 150.25666873 -159 146 C-157.73257922 144.3396007 -156.41911376 142.71335776 -155.0625 141.125 C-152.13513299 137.55893474 -149.96426685 134.24434877 -148.0546875 130.0703125 C-145.28756238 124.63854837 -141.48151789 119.6621908 -137.4375 115.125 C-134.48852414 111.34426172 -132.60321464 107.36419986 -130.515625 103.0625 C-124.09250972 90.08383406 -115.12072541 78.35004899 -106.76513672 66.56811523 C-105.58860372 64.85636549 -104.45128569 63.1169918 -103.35498047 61.3527832 C-98.49648607 53.62228215 -92.92601932 47.36073387 -86.41723633 41.00561523 C-84.79291251 39.4183595 -83.18572176 37.8151145 -81.58007812 36.20898438 C-73.16070047 27.86906458 -73.16070047 27.86906458 -68 25 C-66.47043073 23.92903642 -64.94980572 22.84520617 -63.4375 21.75 C-50.35478352 12.57661596 -37.13329107 7.04756116 -21.875 2.6875 C-20.9689502 2.4205835 -20.06290039 2.15366699 -19.12939453 1.87866211 C-12.64908463 0.09771964 -6.70540634 -0.31302681 0 0 Z " fill="#F7FAFB" transform="translate(287,85)"/>
<path d="M0 0 C8.96137708 6.98217724 16.04631619 14.92771468 17.9375 26.4375 C18.63277281 36.44942846 13.40080285 45.51181929 7.32421875 53.08984375 C2.33846055 58.48129534 -3.6187973 62.20619413 -9.828125 66.01953125 C-12.88355407 67.83995261 -12.88355407 67.83995261 -15.03515625 69.63671875 C-17.62367154 71.43272638 -20.16424195 72.13311597 -23.1875 73 C-28.50215242 74.55960455 -33.75474747 76.2219483 -39 78 C-37.83984375 78.52787109 -37.83984375 78.52787109 -36.65625 79.06640625 C-26.74439738 83.76472253 -18.15964361 89.04842457 -13.94140625 99.6640625 C-12.83384095 103.58879596 -12.51548119 107.25656671 -12.3125 111.3125 C-12.26544922 112.04017578 -12.21839844 112.76785156 -12.16992188 113.51757812 C-12.06614774 115.34298223 -12.02741165 117.17185399 -12 119 C-12.33 119.33 -12.66 119.66 -13 120 C-13.24750772 121.81008661 -13.47256425 123.62325739 -13.6875 125.4375 C-15.52247765 136.75542785 -23.50235204 147.43013495 -32 155 C-33.65786982 156.01451735 -35.32552818 157.01312518 -37 158 C-38.78204166 159.29724109 -40.55250608 160.61050024 -42.3125 161.9375 C-53.9811297 170.4436039 -65.22631231 173.53384952 -79.6875 173.4375 C-81.30108398 173.4674707 -81.30108398 173.4674707 -82.94726562 173.49804688 C-89.76889891 173.49386951 -94.20482414 172.6579954 -100 169 C-105.39601078 163.17798837 -106.48817463 159.20984236 -106.28125 151.3984375 C-105.26478052 139.11609799 -96.94760346 131.68313047 -88 124 C-84.25017031 121.13632409 -81.89017464 119.46120154 -77.125 119.75 C-76.34382813 119.78609375 -75.56265625 119.8221875 -74.7578125 119.859375 C-74.17773438 119.90578125 -73.59765625 119.9521875 -73 120 C-74.03345036 125.14594352 -77.05670818 126.68474327 -81.30859375 129.5625 C-90.99215044 135.96532878 -90.99215044 135.96532878 -97.4375 145.3125 C-98.87925639 153.8140294 -98.87925639 153.8140294 -96.40625 161.76953125 C-93.21836483 164.7245352 -91.41926355 164.64099729 -87.125 164.5625 C-81.48010588 164.32390138 -78.19706773 164.00629193 -74 160 C-73.175 159.22398437 -72.35 158.44796875 -71.5 157.6484375 C-65.96200643 152.40780376 -65.96200643 152.40780376 -62 146 C-60.33333333 144.33333333 -58.66666667 142.66666667 -57 141 C-46.93266433 130.3208373 -41.64968281 113.4641272 -41.625 99 C-41.58826172 97.86691406 -41.58826172 97.86691406 -41.55078125 96.7109375 C-41.51765285 90.28402873 -42.83903403 88.32193193 -46 82 C-56.89 81.505 -56.89 81.505 -68 81 C-68 74 -68 74 -66 72 C-63.62084961 71.8840332 -63.62084961 71.8840332 -60.65234375 72.05078125 C-59.03102539 72.10782227 -59.03102539 72.10782227 -57.37695312 72.16601562 C-55.11035415 72.2625488 -52.84451143 72.37926195 -50.58007812 72.51757812 C-43.27146078 72.72935947 -39.30098585 71.73118764 -33.80688477 66.81323242 C-33.21061279 66.21486572 -32.61434082 65.61649902 -32 65 C-31.45666016 64.46930908 -30.91332031 63.93861816 -30.35351562 63.3918457 C-28.71129072 61.70311479 -27.33898087 59.89253683 -25.9375 58 C-25.43089844 57.319375 -24.92429687 56.63875 -24.40234375 55.9375 C-23.2304292 54.31836457 -22.10870448 52.66305671 -21 51 C-20.34 51 -19.68 51 -19 51 C-18.82984375 50.45472656 -18.6596875 49.90945312 -18.484375 49.34765625 C-17.1995779 45.34975039 -15.82542603 41.53424857 -14 37.75 C-9.13469022 27.00499153 -7.80675845 17.18136081 -11.625 6.0625 C-11.90601563 5.33160156 -12.18703125 4.60070312 -12.4765625 3.84765625 C-13 2 -13 2 -12 0 C-7.24587977 -1.82850778 -4.43211679 -2.70251024 0 0 Z " fill="#F8FBFB" transform="translate(279,96)"/>
<path d="M0 0 C3.13695341 -0.03978812 6.27347745 -0.06429429 9.41064453 -0.07910156 C10.89467773 -0.08635254 10.89467773 -0.08635254 12.40869141 -0.09375 C13.79991211 -0.09036621 13.79991211 -0.09036621 15.21923828 -0.08691406 C16.04093506 -0.08578613 16.86263184 -0.0846582 17.70922852 -0.08349609 C19.92919155 0.0433863 21.83248791 0.47060566 23.97314453 1.04589844 C25.97143466 1.1957702 27.97189122 1.31789275 29.97314453 1.42089844 C39.45915562 2.10227297 48.18121839 4.49531288 56.97314453 8.04589844 C56.64314453 9.03589844 56.31314453 10.02589844 55.97314453 11.04589844 C51.46343363 10.62045401 47.37253418 9.92140173 43.03564453 8.60839844 C37.29251455 6.95017077 31.5640242 6.28745171 25.63549805 5.69262695 C20.15164563 5.13514899 20.15164563 5.13514899 17.97314453 4.04589844 C14.68701057 3.80716221 11.3919987 3.86070829 8.09814453 3.85839844 C7.18677734 3.84615234 6.27541016 3.83390625 5.33642578 3.82128906 C4.45599609 3.81935547 3.57556641 3.81742187 2.66845703 3.81542969 C1.86424316 3.8113208 1.0600293 3.80721191 0.23144531 3.80297852 C-2.27311899 4.07238841 -3.81641308 4.87811228 -6.02685547 6.04589844 C-8.6216726 6.45028552 -11.16895606 6.77981082 -13.77685547 7.04589844 C-32.80954008 9.27349067 -42.26734269 19.03896073 -54.42138672 33.21386719 C-58.17918072 37.50195815 -62.24991788 41.41526006 -66.58935547 45.10839844 C-71.82114944 49.6668707 -76.69510071 54.56818327 -81.58935547 59.48339844 C-82.49621094 60.38638672 -83.40306641 61.289375 -84.33740234 62.21972656 C-88.85049528 66.73936495 -93.2082872 71.3165819 -97.36694336 76.16333008 C-100.25247585 79.43592032 -103.35916411 82.483424 -106.46435547 85.54589844 C-107.10050781 86.17753906 -107.73666016 86.80917969 -108.39208984 87.45996094 C-109.93468353 88.99095617 -111.48042861 90.51877511 -113.02685547 92.04589844 C-105.95784807 95.58040214 -92.79481557 93.93224348 -85.32373047 92.17480469 C-82.40153143 90.98326631 -79.75223325 89.63470164 -77.02685547 88.04589844 C-76.01494141 87.50320312 -75.00302734 86.96050781 -73.96044922 86.40136719 C-64.78634634 81.31484957 -57.09315224 75.25809764 -49.65185547 67.92089844 C-49.13945312 67.41792236 -48.62705078 66.91494629 -48.09912109 66.39672852 C-45.21237987 63.48458934 -42.99296707 60.63670107 -41.02685547 57.04589844 C-40.60404297 56.38589844 -40.18123047 55.72589844 -39.74560547 55.04589844 C-36.39767808 49.55186375 -34.92921674 44.26231797 -33.70263672 37.96386719 C-33.09763548 35.35152079 -32.34498502 33.362441 -31.02685547 31.04589844 C-26.27685547 31.79589844 -26.27685547 31.79589844 -24.02685547 34.04589844 C-23.79638672 36.83105469 -23.79638672 36.83105469 -23.83935547 40.10839844 C-23.84580078 41.1925 -23.85224609 42.27660156 -23.85888672 43.39355469 C-24.02685547 46.04589844 -24.02685547 46.04589844 -25.02685547 47.04589844 C-25.05439378 48.56662514 -25.07348922 50.08750517 -25.08935547 51.60839844 C-25.99225706 62.7781649 -33.27565536 74.33621339 -40.02685547 83.04589844 C-40.69716797 83.92632812 -41.36748047 84.80675781 -42.05810547 85.71386719 C-46.77147577 91.40918964 -51.5200581 95.3887254 -57.90185547 99.04589844 C-58.52495605 99.40748047 -59.14805664 99.7690625 -59.79003906 100.14160156 C-69.79295181 105.51386655 -80.09721642 106.49078092 -91.27685547 106.23339844 C-92.41509766 106.21986328 -93.55333984 106.20632812 -94.72607422 106.19238281 C-97.49352534 106.15749897 -100.25991652 106.1084916 -103.02685547 106.04589844 C-103.02685547 105.38589844 -103.02685547 104.72589844 -103.02685547 104.04589844 C-104.01685547 103.98402344 -105.00685547 103.92214844 -106.02685547 103.85839844 C-111.88129649 102.96134699 -116.17033184 100.2359293 -119.98388672 95.73730469 C-125.90164459 87.55211118 -129.58488482 80.302925 -128.02685547 70.04589844 C-121.1780114 47.47584413 -103.56407723 33.2938843 -83.68994141 22.44189453 C-69.61745912 15.06506526 -54.8307805 10.06950149 -39.57275391 5.77294922 C-37.33947413 5.13517523 -35.12435397 4.45967982 -32.90966797 3.76074219 C-21.95459358 0.47421987 -11.34150117 0.17197953 0 0 Z " fill="#F0F9FB" transform="translate(200.02685546875,76.9541015625)"/>
<path d="M0 0 C2.05078125 0.03255208 4.1015625 0.06510417 6.15234375 0.09765625 C3.68638748 2.66636069 1.09902377 5.02787442 -1.59765625 7.34765625 C-7.93427503 12.86133753 -13.65224568 18.80710147 -19.13671875 25.16015625 C-22.94506342 29.47280227 -27.03043497 33.43273388 -31.41015625 37.16015625 C-36.64195022 41.71862852 -41.51590149 46.61994108 -46.41015625 51.53515625 C-47.31701172 52.43814453 -48.22386719 53.34113281 -49.15820312 54.27148438 C-53.67217797 58.79200595 -58.045801 63.36620245 -62.2097168 68.21069336 C-65.02964908 71.45935286 -67.97945604 74.57156834 -70.97265625 77.66015625 C-71.56691406 78.30017578 -72.16117188 78.94019531 -72.7734375 79.59960938 C-74.40387664 81.27143935 -75.91893962 82.78049816 -77.84765625 84.09765625 C-80.77734375 84 -80.77734375 84 -82.84765625 83.09765625 C-82.84765625 82.43765625 -82.84765625 81.77765625 -82.84765625 81.09765625 C-83.50765625 81.09765625 -84.16765625 81.09765625 -84.84765625 81.09765625 C-88.44571541 74.65113358 -88.86461044 68.37471367 -87.84765625 61.09765625 C-82.80122459 46.47732056 -71.47294709 35.32455005 -59.16015625 26.53515625 C-58.36706055 25.96724365 -57.57396484 25.39933105 -56.75683594 24.81420898 C-50.71746837 20.56298953 -44.63403433 17.03627734 -37.84765625 14.09765625 C-36.82285156 13.62328125 -35.79804688 13.14890625 -34.7421875 12.66015625 C-26.57037925 8.98140553 -18.21595756 6.11469911 -9.69165039 3.36938477 C-8.38248657 2.94677368 -8.38248657 2.94677368 -7.046875 2.515625 C-6.26143311 2.26578857 -5.47599121 2.01595215 -4.66674805 1.75854492 C-2.59580977 1.00615868 -2.20851405 0.11672907 0 0 Z " fill="#05B9EA" transform="translate(164.84765625,84.90234375)"/>
<path d="M0 0 C-1.4165021 3.4232134 -3.06827149 4.82484659 -6 7 C-6.33 7.99 -6.66 8.98 -7 10 C-6.01 10 -5.02 10 -4 10 C-4 9.34 -4 8.68 -4 8 C-0.17679443 6.57741188 2.91281305 5.75957724 7 6 C6.49231681 10.4422279 4.84178232 12.6253835 2 16 C1.505 17.485 1.505 17.485 1 19 C2.65 19 4.3 19 6 19 C6.495 21.475 6.495 21.475 7 24 C9.64 21.36 12.28 18.72 15 16 C15.66 16.33 16.32 16.66 17 17 C16.52167725 17.47308594 16.04335449 17.94617188 15.55053711 18.43359375 C13.3434466 20.61964406 11.14046367 22.80979129 8.9375 25 C7.80924805 26.11568359 7.80924805 26.11568359 6.65820312 27.25390625 C2.50044368 31.39366674 -1.47971353 35.61383641 -5.30932617 40.05810547 C-8.15076173 43.32175578 -11.11404955 46.45559619 -14.125 49.5625 C-14.71925781 50.20251953 -15.31351563 50.84253906 -15.92578125 51.50195312 C-17.55622039 53.1737831 -19.07128337 54.68284191 -21 56 C-23.9296875 55.90234375 -23.9296875 55.90234375 -26 55 C-26 54.34 -26 53.68 -26 53 C-26.66 53 -27.32 53 -28 53 C-31.6078954 46.53585408 -31.97998619 40.29545275 -31 33 C-28.32880824 23.99458982 -22.84499914 18.37790073 -15.91015625 12.48046875 C-13.47682588 10.40642206 -11.22413739 8.29138992 -9 6 C-3.08633094 0 -3.08633094 0 0 0 Z " fill="#03A1E9" transform="translate(108,113)"/>
<path d="M0 0 C2.475 0.99 2.475 0.99 5 2 C3.92598892 4.91517292 3.22189824 6.77810176 1 9 C0.01 9 -0.98 9 -2 9 C-2 8.34 -2 7.68 -2 7 C-2.99 7 -3.98 7 -5 7 C-3.70700306 4.11562221 -2.34058637 2.12780579 0 0 Z " fill="#00A7E9" transform="translate(69,85)"/>
<path d="M0 0 C0.66 0.33 1.32 0.66 2 1 C-3.28 6.28 -8.56 11.56 -14 17 C-14.66 16.67 -15.32 16.34 -16 16 C-10.96679794 10.22494276 -5.96260189 4.82082706 0 0 Z " fill="#17B4EB" transform="translate(101,115)"/>
<path d="M0 0 C1.32 0 2.64 0 4 0 C3.75 2.375 3.75 2.375 3 5 C0.9375 6.3125 0.9375 6.3125 -1 7 C-0.67 4.69 -0.34 2.38 0 0 Z " fill="#01A2E9" transform="translate(282,279)"/>
<path d="M0 0 C2.74277578 3.19990508 4.6302836 6.00499382 6 10 C3.54896452 9.01958581 2.23241214 8.3486182 0.75 6.125 C0 4 0 4 0 0 Z " fill="#1BBEEB" transform="translate(74,162)"/>
</svg>
