<svg width="840" height="1208" xmlns="http://www.w3.org/2000/svg" xmlns:svg="http://www.w3.org/2000/svg" version="1.1">
    <g class="layer">
     <title>Layer 1</title>
     <path d="m107,200l31,0l2,1l0,2l4,2l0,2l2,0l0,2l2,0l0,2l2,0l6,8l3,5l1,4l1,275l2,-1l2,-5l6,-4l4,-5l4,-4l7,-9l9,-5l3,-3l2,0l1,-7l7,-2l4,-7l6,-8l4,-3l5,-2l4,-4l4,-8l1,-96l9,-17l9,-10l4,-3l9,-2l3,-2l15,0l17,8l9,17l1,4l0,23l7,-2l9,-5l9,-6l13,-7l9,-2l2,-2l11,-1l5,-3l23,-1l1,-3l10,0l2,3l30,1l1,3l10,1l6,3l9,3l16,8l10,6l5,4l0,-98l3,-5l2,-8l4,-8l5,-6l10,-6l3,-1l26,0l10,5l5,4l6,10l5,10l1,4l1,178l7,6l4,4l0,2l4,2l0,2l4,2l0,2l4,2l0,2l4,2l0,2l4,2l0,2l4,2l0,2l4,2l0,2l4,2l0,2l4,2l0,2l4,2l0,2l4,2l0,2l4,2l15,15l1,-186l3,-4l3,-7l3,-6l5,-6l7,-4l6,-3l9,-2l4,-1l1,2l12,1l10,5l5,4l0,2l2,0l6,8l4,9l1,275l6,6l8,16l5,12l2,6l2,7l0,9l3,1l1,6l0,47l-1,7l-2,0l-1,16l-11,23l-8,15l-4,8l-1,262l-3,6l-2,9l-5,9l-8,8l-7,3l-5,1l-24,0l-7,-4l-5,-3l0,-2l-2,0l-4,-5l-4,-9l-1,-13l-2,0l-1,-2l0,-173l1,-2l2,0l0,-4l-6,3l-10,9l-26,26l-1,192l-6,11l-12,12l-7,3l-5,1l-20,0l-7,-4l-8,-7l-7,-7l-4,-9l-1,-113l-2,0l0,2l-8,7l-26,26l-6,3l-8,6l-5,3l-5,4l-8,4l-11,3l-5,2l-7,2l-1,1l-22,2l-1,2l-11,1l-14,0l-7,-1l-2,-2l-12,-1l-10,-3l-11,-2l-16,-8l-17,-9l-6,-5l-5,-1l-1,54l-3,4l-2,9l-5,9l-8,8l-11,4l-11,0l-5,-2l-1,-1l-9,-2l-2,-1l0,-2l-10,-5l-5,-10l-2,-9l-2,-2l-1,-134l-3,-1l-5,-6l-7,-6l-5,-6l-36,-36l-8,-7l-8,-8l0,-2l-2,0l-1,279l-4,10l-6,11l-7,7l-8,4l-6,1l-17,0l-7,-3l-6,-4l-10,-10l-5,-10l-1,-359l-3,-6l-3,-9l-6,-10l-3,-4l-4,-9l-8,-24l-2,-15l-2,-3l0,-39l3,-6l1,-14l4,-11l5,-15l6,-7l7,-14l5,-6l1,-359l5,-10l5,-6l10,-6l3,-1zm295,260l-8,7l-2,5l6,-1l3,-2l18,-1l0,-4l-5,-4l-12,0zm4,16l-3,2l-17,2l-11,6l-35,35l0,2l-4,2l0,2l-4,2l0,2l-4,2l0,2l-4,2l0,2l-4,2l0,2l-4,2l0,2l-4,2l-100,100l0,3l7,2l4,2l39,0l3,-2l0,-2l8,0l16,-8l11,-6l9,-6l10,-7l6,-4l10,-9l10,-10l7,-8l4,-4l2,-5l6,-7l3,-7l4,-8l1,-1l2,-9l2,-3l1,-12l3,-4l1,-5l5,0l5,5l0,24l-3,3l-1,21l-3,3l-2,6l-12,24l-5,9l-6,7l-7,6l-2,6l-7,7l-7,3l-10,6l-3,3l-16,8l-14,2l-1,3l-55,0l-2,-3l-10,-2l-8,-4l-7,-6l-8,0l-8,7l-2,3l0,7l5,10l18,18l5,6l7,6l5,6l8,7l51,51l2,3l3,-1l1,-7l4,-2l7,-9l3,-5l5,-6l3,-7l6,-10l3,-3l3,-6l5,-6l3,-6l9,-10l10,-21l6,-8l6,-12l6,-8l6,-9l7,-11l3,-3l3,-6l5,-6l3,-6l3,-3l0,-2l2,0l4,-5l2,-5l6,-7l2,-5l15,-15l0,-2l4,-2l5,-6l7,-6l5,-6l23,-23l-2,-4l-4,-5l-6,-5l-7,-8l-31,-31l-25,0zm96,75l-4,8l-6,7l-2,5l-8,16l-3,3l0,2l-2,0l-3,7l-8,16l-2,3l-1,8l-3,3l-2,6l-2,3l-2,9l-6,11l-2,5l-8,16l-9,17l-2,4l-2,0l-3,7l-4,8l-6,7l-2,5l-6,7l-2,5l-4,8l-44,44l-5,2l-10,9l-6,3l-9,7l1,4l6,5l48,48l7,8l2,0l2,4l2,0l0,2l9,6l6,3l7,0l7,-6l7,-8l24,-24l0,-2l-31,-1l-3,-3l-8,-4l-7,-3l-7,-7l-4,-7l-3,-5l0,-19l3,-7l3,-9l3,-6l12,-13l12,-12l11,-7l5,-4l13,0l1,2l-3,5l-5,3l-8,6l-2,2l-7,3l-22,22l-3,11l-2,3l0,20l11,12l3,2l23,0l10,-5l12,-11l5,-5l6,-7l5,-5l3,-6l5,-3l4,-6l5,-6l3,-6l5,-6l8,-17l2,-8l6,-12l1,-10l3,-7l0,-30l-3,-6l-2,-7l-7,-8l-1,-1l-42,-1l0,-9l4,-5l9,0l3,3l33,0l9,-5l11,-10l5,-2l5,-5l2,-5l10,-11l1,-6l3,-1l-3,-5l-5,-4l-5,-6l-2,0l-2,-4l-29,-29l-8,-7l-4,-1zm81,80l-6,4l-6,3l-6,5l-8,1l-2,2l-11,3l-5,2l-7,2l-4,2l-12,1l1,4l6,4l8,2l9,5l6,5l5,2l7,7l3,6l6,8l1,8l3,1l1,19l1,1l5,0l6,-5l7,-8l7,-7l6,-5l6,-7l14,-14l0,-12l-12,-13l-25,-25l-4,-1z" fill="#01B9EA" id="svg_1" transform="matrix(1 0 0 1 0 0)"/>
     <path d="m0,0l31,0l2,1l0,2l4,2l0,2l2,0l0,2l2,0l0,2l2,0l6,8l3,5l1,4l1,275l2,-1l2,-5l2,0l-2,6l-2,2l6,-1l0,2l4,0l0,2l3,1l0,3l7,-1l0,-2l6,-2l1,8l3,9l5,4l3,3l1,4l-2,12l11,-6l5,-2l9,-1l4,3l-10,9l-9,9l-4,5l-2,0l0,-3l-5,4l4,2l-2,5l-2,3l-2,0l-1,3l-2,2l-4,13l-3,10l-2,7l0,16l4,10l2,6l0,7l2,0l0,3l3,1l3,4l2,-1l0,3l2,1l-9,8l-1,2l0,7l5,10l18,18l0,2l4,2l0,2l4,2l0,2l4,2l0,2l4,2l0,2l4,2l0,2l4,2l52,52l1,4l-15,14l-9,9l-13,9l-19,8l-11,1l-5,3l-25,0l-7,-1l-4,-2l-12,-2l-13,-5l-11,-8l-5,-5l-4,-8l-1,-5l0,-9l3,-4l8,-4l9,-3l5,-2l23,-1l7,-7l8,-13l0,-11l-4,-10l-5,-5l-6,-5l-13,-5l-18,0l-9,3l-8,4l-10,9l-7,8l-5,11l-4,12l0,11l3,8l2,11l6,10l6,8l13,10l19,9l9,3l9,2l3,1l72,0l3,-2l15,-1l6,-3l11,-3l13,-4l19,-9l2,0l1,3l7,6l0,2l4,2l44,44l0,2l4,2l6,7l2,1l0,2l4,2l11,6l7,0l6,-5l2,-3l2,0l2,-4l25,-25l1,-2l-31,0l-2,-4l39,1l15,-4l16,-5l21,-10l8,-4l8,-5l3,-1l-2,4l-10,8l-8,5l-1,2l-3,0l0,2l-2,0l0,2l-3,3l1,3l11,1l4,-1l3,-1l6,2l-3,1l1,3l-4,1l0,2l-6,1l0,2l2,0l0,2l10,0l4,3l-7,3l-5,2l16,0l3,2l-5,5l3,1l9,1l-1,7l3,0l1,-2l2,4l9,-1l10,2l6,3l5,1l6,12l-2,11l-1,13l2,2l6,2l0,10l4,6l2,1l1,-6l0,-12l5,-13l4,-7l6,-1l1,-8l1,-15l3,-5l2,1l-1,1l-1,192l-6,11l-12,12l-7,3l-5,1l-20,0l-7,-4l-8,-7l-7,-7l-4,-9l-1,-113l-2,0l0,2l-8,7l-26,26l-6,3l-8,6l-5,3l-5,4l-8,4l-11,3l-5,2l-7,2l-1,1l-22,2l-1,2l-11,1l-14,0l-7,-1l-2,-2l-12,-1l-10,-3l-11,-2l-16,-8l-17,-9l-6,-5l-5,-1l-1,54l-3,4l-2,9l-5,9l-8,8l-11,4l-11,0l-5,-2l-1,-1l-9,-2l-2,-1l0,-2l-10,-5l-5,-10l-2,-9l-2,-2l-1,-134l-3,-1l-5,-6l-7,-6l-5,-6l-36,-36l-8,-7l-8,-8l0,-2l-2,0l-1,279l-4,10l-6,11l-7,7l-8,4l-6,1l-17,0l-7,-3l-6,-4l-10,-10l-5,-10l-1,-359l-3,-6l-3,-9l-6,-10l-3,-4l-4,-9l-8,-24l-2,-15l-2,-3l0,-39l3,-6l1,-14l4,-11l5,-15l6,-7l7,-14l5,-6l1,-359l5,-10l5,-6l10,-6l3,-1z" fill="#019FE9" id="svg_2" transform="translate(107,200)"/>
     <path d="m599,481l16,0l1,4l-2,2l-16,3l-12,1l-21,6l-11,4l-11,7l-9,7l-5,4l-2,3l-2,0l-2,4l-10,10l-9,12l-3,5l-2,5l-6,7l-2,5l-8,16l-4,5l-2,0l-2,7l-8,16l-2,3l-1,8l-3,3l-2,6l-2,3l-2,9l-6,11l-2,5l-8,16l-9,17l-3,4l-2,0l-2,7l-4,8l-6,7l-2,5l-6,7l-2,5l-4,8l-45,45l-5,2l-10,9l-6,3l-7,6l-13,5l-12,6l-17,5l-9,3l-6,1l-11,1l-3,2l-72,0l-5,-2l-11,-2l-18,-8l-10,-6l-10,-8l-8,-11l-4,-7l-3,-14l-2,-5l0,-11l6,-17l6,-10l12,-12l8,-5l10,-3l2,-1l18,0l13,5l9,7l6,10l1,4l0,11l-9,14l-7,7l-23,1l-10,4l-7,3l-6,3l-1,2l0,9l3,10l2,5l4,2l8,6l5,3l11,4l15,3l1,1l7,1l25,0l5,-3l11,-1l19,-8l14,-10l17,-17l8,-6l2,-7l5,-5l5,-6l3,-5l5,-6l3,-7l6,-10l3,-3l3,-6l5,-6l3,-6l9,-10l10,-21l6,-8l6,-12l6,-8l6,-9l7,-11l3,-3l3,-6l5,-6l3,-6l4,-5l2,0l5,-10l6,-7l2,-5l11,-11l5,-6l7,-6l6,-7l6,-5l2,-3l2,0l2,-4l8,-8l5,-3l7,-6l7,-4l16,-11l14,-8l20,-9l18,-5l16,-5l26,-6z" fill="#000000" id="svg_3" transform="matrix(1 0 0 1 0 0)"/>
     <path d="m590,500l6,1l10,7l15,15l8,14l6,20l0,7l-2,5l-3,14l-9,17l-12,13l-11,10l-12,7l-9,6l-6,3l-6,5l-8,1l-2,2l-11,3l-5,2l-7,2l-4,2l-12,0l1,3l6,4l8,2l9,5l6,5l5,2l8,8l3,6l6,8l1,8l3,3l1,17l3,2l-1,11l-2,4l-1,14l-5,12l-6,11l-11,16l-12,13l-18,14l-14,9l-19,9l-24,7l-10,1l-35,-1l-8,-4l-7,-3l-8,-8l-4,-7l-3,-5l0,-19l3,-7l3,-9l3,-6l12,-13l13,-13l11,-7l5,-4l13,0l2,3l-3,5l-3,3l-8,4l-5,5l-7,3l-21,21l-3,11l-2,3l0,20l11,12l2,1l23,0l10,-5l12,-11l7,-8l4,-4l2,0l2,-4l4,-7l5,-3l3,-5l5,-6l3,-6l5,-6l8,-17l2,-8l6,-12l1,-10l3,-7l0,-30l-3,-6l-2,-7l-7,-8l-42,-1l-1,-1l0,-9l2,-3l2,0l1,-3l9,0l3,3l33,0l9,-5l11,-10l5,-2l4,-4l2,-5l10,-11l2,-6l5,-4l9,-21l5,-12l4,-17l3,-14l0,-7l-6,-19l-3,-6l1,-4l12,-2l3,-2z" fill="#000000" id="svg_4" transform="matrix(1 0 0 1 0 0)"/>
     <path d="m440,465l39,0l4,2l8,1l21,1l5,2l18,4l20,7l-1,4l-2,1l-9,-1l-15,-5l-13,-3l-2,-1l-28,-2l-9,-3l-36,0l-12,4l-22,1l-3,2l-17,2l-11,6l-34,34l-5,6l-7,6l-5,6l-7,6l-104,104l-1,3l6,0l5,3l39,0l3,-3l10,-2l16,-8l9,-5l9,-6l10,-7l6,-4l10,-9l9,-9l7,-8l4,-4l2,-5l6,-7l3,-7l4,-8l1,-1l2,-9l2,-3l1,-12l3,-4l2,-6l5,0l5,4l1,2l0,24l-3,3l-1,21l-3,3l-2,6l-12,24l-5,9l-7,8l-6,5l-2,6l-8,8l-7,3l-10,6l-3,3l-16,8l-14,2l-1,2l-10,1l-45,0l-2,-4l-8,0l-5,-3l-5,-2l-7,-6l-5,-2l-6,-9l-6,-8l-6,-14l-1,-2l0,-17l5,-16l7,-14l10,-15l9,-11l6,-5l5,-5l12,-10l13,-9l19,-11l16,-8l27,-12l33,-11l22,-6l13,-3l13,-2l5,-3l31,0l8,-3z" fill="#000000" id="svg_5"/>
     <path d="m0,0l31,0l2,1l0,2l4,2l0,2l2,0l0,2l2,0l0,2l2,0l6,8l2,6l0,43l-1,174l-1,11l-4,2l-4,-10l0,-2l-2,0l-6,-8l-2,-3l-5,-3l-4,-10l-3,-8l-3,-3l-5,-19l-1,-3l-3,-1l-4,-6l-4,-7l-4,-16l-3,-5l-2,2l-2,9l-1,17l-2,43l0,41l-1,4l-1,0l-1,7l-2,1l0,-28l0,-4l0,-8l-1,-9l-1,-119l0,-87l5,-8l4,-5l10,-6l3,-1z" fill="#01B9EA" id="svg_6" transform="translate(107,200)"/>
     <path d="m0,0l2,1l-10,6l-33,33l-5,6l-7,6l-5,6l-7,6l-105,105l-5,-2l-6,-8l-6,-14l0,-16l5,-15l8,-14l10,-15l15,-15l14,-11l11,-8l15,-10l23,-12l24,-10l51,-18l8,0l3,-1z" fill="#01B9EA" id="svg_7" transform="translate(382,481)"/>
     <path d="m0,0l18,0l10,5l5,4l0,2l4,2l7,8l2,9l3,5l0,10l-8,16l-5,7l-5,4l-11,4l-25,0l-4,-3l-5,-2l-3,-2l0,-2l-3,-1l-7,-8l-2,-10l-2,-2l0,-11l3,-7l2,-7l11,-12l6,-5l9,-4z" fill="#01B9EA" id="svg_8" transform="translate(531,108)"/>
     <path d="m0,0l26,0l10,5l9,8l4,7l2,7l2,5l0,13l-6,11l-7,8l-10,8l-10,4l-16,0l-5,-3l-5,-2l-9,-8l-8,-10l-1,-7l-3,-4l0,-7l3,-7l3,-9l3,-6l6,-7l12,-6z" fill="#01B9EA" id="svg_9" transform="translate(683,156)"/>
     <path d="m0,0l22,0l10,5l9,8l4,7l2,7l2,5l0,14l-3,4l-2,9l-12,12l-8,4l-5,1l-20,0l-7,-4l-8,-6l-11,-12l0,-31l4,-6l10,-10l10,-6l3,-1z" fill="#01B9EA" id="svg_10" transform="translate(111,80)"/>
     <path d="m0,0l2,1l0,3l-2,0l-1,3l-5,4l-2,0l-2,4l-2,0l0,5l3,1l2,0l2,-4l5,-2l1,1l11,-4l6,-1l-5,6l3,2l-2,4l-3,2l-1,4l-6,6l1,3l9,1l3,2l0,5l-2,1l-2,4l-2,0l-2,4l-2,0l-2,4l-1,3l20,-20l2,0l0,-2l8,-7l4,-2l-6,7l-74,74l-1,-2l-4,-1l-5,-7l-5,-12l-1,-11l2,-10l6,-16l9,-14l5,-8l18,-18l10,-7l4,-2l4,-4z" fill="#019FE9" id="svg_11" transform="translate(255,537)"/>
     <path d="m0,0l15,0l17,8l9,17l1,4l0,22l-2,1l-2,-16l-5,-12l-4,-5l-3,-2l0,-2l-2,0l-4,-4l-4,-2l-14,-1l-8,3l-6,1l-5,2l-2,5l-5,8l-4,11l-2,11l-1,9l-1,68l-2,4l0,-96l9,-17l9,-10l4,-3l9,-2l3,-2z" fill="#019FE9" id="svg_12" transform="translate(270,296)"/>
     <path d="m0,0l6,2l6,3l5,-1l4,-2l5,1l0,11l-4,5l-13,0l-8,-3l-2,-5l0,-10l1,-1z" fill="#029FE9" id="svg_13" transform="translate(683,1035)"/>
     <path d="m0,0l2,4l0,178l-2,-1l-1,-67l0,-57l1,-57z" fill="#01ABE9" id="svg_14" transform="translate(578,245)"/>
     <path d="m0,0l2,0l-1,15l0,32l1,127l0,3l-2,0l-1,-2l0,-173l1,-2z" fill="#019FE9" id="svg_15" transform="translate(657,851)"/>
     <path d="m0,0l4,2l4,12l0,8l1,10l-5,1l-5,-1l-1,-4l0,-17l1,-10l1,-1z" fill="#029FE9" id="svg_16" transform="translate(669,988)"/>
     <path d="m0,0l1,2l-3,7l-1,11l-1,170l-1,0l0,-181l3,-4l2,-5z" fill="#019FE9" id="svg_17" transform="translate(661,305)"/>
     <path d="m0,0l4,4l5,0l-2,5l-5,8l-6,1l-2,-5l-5,2l2,-5l6,-5l3,-5z" fill="#01A0E9" id="svg_18" transform="translate(181,481)"/>
     <path d="m0,0l4,0l4,2l-1,4l-3,4l-3,1l-2,3l-2,-1l2,-12l1,-1z" fill="#029FE9" id="svg_19" transform="translate(607,869)"/>
     <path d="m0,0l3,0l-2,4l-12,11l-10,10l-4,3l-2,-1l13,-12l13,-13l1,-2z" fill="#01BAEB" id="svg_20" transform="translate(290,783)"/>
     <path d="m0,0l3,1l1,2l0,24l-2,1l-1,-24l-1,-4z" fill="#01B7EA" id="svg_21" transform="translate(388,531)"/>
     <path d="m0,0l5,1l-4,3l-2,3l-7,3l-9,6l-2,-1l11,-8l8,-7z" fill="#01B3EA" id="svg_22" transform="translate(532,813)"/>
     <path d="m0,0l2,0l1,7l-1,8l-4,-1l2,-6l0,-8z" fill="#01BAEB" id="svg_23" transform="translate(592,954)"/>
     <path d="m0,0l2,1l-2,4l-8,7l-2,-1l7,-7l2,0l1,-4z" fill="#01A5E9" id="svg_24" transform="translate(481,527)"/>
     <path d="m0,0l2,1l-4,8l-5,4l2,-5l5,-8z" fill="#029FE9" id="svg_25" transform="translate(558,786)"/>
     <path d="m0,0l3,1l1,2l0,9l-2,1l-2,-13z" fill="#01A5E9" id="svg_26" transform="translate(388,531)"/>
     <path d="m0,0l2,0l1,5l-4,1l-3,-3l4,-3z" fill="#01BAEB" id="svg_27" transform="translate(181,486)"/>
    </g>
   
   </svg>